<svg width="445" height="622" viewBox="0 0 445 622" fill="none" xmlns="http://www.w3.org/2000/svg">
<path d="M6 615.013V74.1173L425.958 7.00849L438.876 548.866L6 615.013Z" stroke="#EAEAEA" stroke-width="12"/>
<path d="M345.583 46.6667C345.583 46.2 345.993 45.8333 346.514 45.8333C348.302 45.8333 349.159 44.9 350.239 43.7333C351.43 42.4667 352.771 41 355.415 41C358.097 41 359.437 42.4333 360.592 43.7333C361.672 44.9 362.529 45.8333 364.316 45.8333C366.104 45.8333 366.96 44.9 368.04 43.7333C369.269 42.4333 370.61 41 373.292 41C375.973 41 377.314 42.4333 378.468 43.7333C379.548 44.9 380.405 45.8333 382.193 45.8333C383.98 45.8333 384.837 44.9 385.917 43.7333C387.109 42.4333 388.449 41 391.131 41C393.812 41 395.153 42.4333 396.307 43.7333C397.387 44.9 398.244 45.8333 400.032 45.8333C400.59 45.8333 401 46.2 401 46.6667C401 47.1333 400.59 47.5 400.069 47.5C397.387 47.5 396.047 46.0667 394.892 44.7667C393.812 43.6 392.956 42.6667 391.168 42.6667C389.38 42.6667 388.524 43.6 387.444 44.7667C386.252 46.0333 384.949 47.5 382.267 47.5C379.586 47.5 378.245 46.0667 377.09 44.7667C376.01 43.6 375.154 42.6667 373.366 42.6667C371.579 42.6667 370.722 43.6 369.642 44.7667C368.45 46.0333 367.147 47.5 364.465 47.5C361.784 47.5 360.443 46.0667 359.289 44.7667C358.209 43.6 357.352 42.6667 355.564 42.6667C353.777 42.6667 352.92 43.6 351.84 44.7667C350.648 46.0333 349.308 47.5 346.663 47.5C345.993 47.5333 345.583 47.1333 345.583 46.6667Z" fill="white"/>
<path d="M345.583 59.2667C345.583 58.8 345.993 58.4333 346.514 58.4333C348.302 58.4333 349.159 57.5 350.239 56.3333C351.43 55.0667 352.771 53.6 355.415 53.6C358.097 53.6 359.438 55.0333 360.592 56.3333C361.672 57.5 362.529 58.4333 364.316 58.4333C366.104 58.4333 366.96 57.5 368.04 56.3333C369.232 55.0667 370.536 53.6 373.217 53.6C375.899 53.6 377.239 55.0333 378.394 56.3333C379.474 57.5 380.33 58.4333 382.118 58.4333C383.906 58.4333 384.762 57.5 385.842 56.3333C387.034 55.0667 388.338 53.6 391.019 53.6C393.7 53.6 395.041 55.0333 396.196 56.3333C397.276 57.5 398.132 58.4333 399.92 58.4333C400.441 58.4333 400.851 58.8 400.851 59.2667C400.851 59.7333 400.441 60.1 399.92 60.1C397.239 60.1 395.898 58.6667 394.743 57.3667C393.663 56.2 392.807 55.2667 391.019 55.2667C389.231 55.2667 388.375 56.2 387.295 57.3667C386.103 58.6333 384.8 60.1 382.118 60.1C379.437 60.1 378.096 58.6667 376.941 57.3667C375.861 56.2 375.005 55.2667 373.217 55.2667C371.43 55.2667 370.573 56.2 369.493 57.3667C368.301 58.6333 366.998 60.1 364.316 60.1C361.635 60.1 360.294 58.6667 359.14 57.3667C358.06 56.2 357.203 55.2667 355.415 55.2667C353.628 55.2667 352.771 56.2 351.691 57.3667C350.499 58.6333 349.159 60.1 346.514 60.1C345.993 60.1 345.583 59.7333 345.583 59.2667Z" fill="white"/>
<path d="M345.583 71.1667C345.583 70.7 345.993 70.3333 346.514 70.3333C348.302 70.3333 349.159 69.4 350.239 68.2333C351.43 66.9667 352.771 65.5 355.415 65.5C358.097 65.5 359.437 66.9333 360.592 68.2333C361.672 69.4 362.529 70.3333 364.316 70.3333C366.104 70.3333 366.96 69.4 368.04 68.2333C369.232 66.9667 370.536 65.5 373.217 65.5C375.899 65.5 377.239 66.9333 378.394 68.2333C379.474 69.4 380.33 70.3333 382.118 70.3333C383.906 70.3333 384.762 69.4 385.842 68.2333C387.034 66.9667 388.338 65.5 391.019 65.5C393.7 65.5 395.041 66.9333 396.196 68.2333C397.276 69.4 398.132 70.3333 399.92 70.3333C400.59 70.3333 401 70.7 401 71.1667C401 71.6333 400.59 72 400.069 72C397.387 72 396.047 70.5667 394.892 69.2667C393.812 68.1 392.956 67.1667 391.168 67.1667C389.38 67.1667 388.524 68.1 387.444 69.2667C386.252 70.5333 384.949 72 382.267 72C379.586 72 378.245 70.5667 377.09 69.2667C376.01 68.1 375.154 67.1667 373.366 67.1667C371.579 67.1667 370.722 68.1 369.642 69.2667C368.45 70.5333 367.147 72 364.465 72C361.784 72 360.443 70.5667 359.289 69.2667C358.209 68.1 357.352 67.1667 355.564 67.1667C353.777 67.1667 352.92 68.1 351.84 69.2667C350.648 70.5333 349.308 72 346.663 72C345.993 72 345.583 71.6333 345.583 71.1667Z" fill="white"/>
<path d="M310 46.6667C310 46.2 310.41 45.8333 310.931 45.8333C312.719 45.8333 313.575 44.9 314.655 43.7333C315.847 42.4667 317.188 41 319.832 41C322.513 41 323.854 42.4333 325.009 43.7333C326.089 44.9 326.945 45.8333 328.733 45.8333C330.521 45.8333 331.377 44.9 332.457 43.7333C333.686 42.4333 335.027 41 337.708 41C340.39 41 341.731 42.4333 342.885 43.7333C343.965 44.9 344.822 45.8333 346.609 45.8333C348.397 45.8333 349.253 44.9 350.334 43.7333C351.525 42.4333 352.866 41 355.547 41C358.229 41 359.57 42.4333 360.724 43.7333C361.804 44.9 362.661 45.8333 364.448 45.8333C365.007 45.8333 365.417 46.2 365.417 46.6667C365.417 47.1333 365.007 47.5 364.486 47.5C361.804 47.5 360.463 46.0667 359.309 44.7667C358.229 43.6 357.372 42.6667 355.585 42.6667C353.797 42.6667 352.94 43.6 351.86 44.7667C350.669 46.0333 349.365 47.5 346.684 47.5C344.002 47.5 342.662 46.0667 341.507 44.7667C340.427 43.6 339.57 42.6667 337.783 42.6667C335.995 42.6667 335.139 43.6 334.059 44.7667C332.867 46.0333 331.563 47.5 328.882 47.5C326.2 47.5 324.86 46.0667 323.705 44.7667C322.625 43.6 321.769 42.6667 319.981 42.6667C318.193 42.6667 317.337 43.6 316.257 44.7667C315.065 46.0333 313.724 47.5 311.08 47.5C310.41 47.5333 310 47.1333 310 46.6667Z" fill="white"/>
<path d="M310 59.2667C310 58.8 310.41 58.4333 310.931 58.4333C312.719 58.4333 313.575 57.5 314.655 56.3333C315.847 55.0667 317.188 53.6 319.832 53.6C322.513 53.6 323.854 55.0333 325.009 56.3333C326.089 57.5 326.945 58.4333 328.733 58.4333C330.521 58.4333 331.377 57.5 332.457 56.3333C333.649 55.0667 334.952 53.6 337.634 53.6C340.315 53.6 341.656 55.0333 342.811 56.3333C343.891 57.5 344.747 58.4333 346.535 58.4333C348.322 58.4333 349.179 57.5 350.259 56.3333C351.451 55.0667 352.754 53.6 355.436 53.6C358.117 53.6 359.458 55.0333 360.612 56.3333C361.692 57.5 362.549 58.4333 364.337 58.4333C364.858 58.4333 365.268 58.8 365.268 59.2667C365.268 59.7333 364.858 60.1 364.337 60.1C361.655 60.1 360.314 58.6667 359.16 57.3667C358.08 56.2 357.223 55.2667 355.436 55.2667C353.648 55.2667 352.792 56.2 351.711 57.3667C350.52 58.6333 349.216 60.1 346.535 60.1C343.853 60.1 342.513 58.6667 341.358 57.3667C340.278 56.2 339.421 55.2667 337.634 55.2667C335.846 55.2667 334.99 56.2 333.91 57.3667C332.718 58.6333 331.414 60.1 328.733 60.1C326.051 60.1 324.711 58.6667 323.556 57.3667C322.476 56.2 321.62 55.2667 319.832 55.2667C318.044 55.2667 317.188 56.2 316.108 57.3667C314.916 58.6333 313.575 60.1 310.931 60.1C310.41 60.1 310 59.7333 310 59.2667Z" fill="white"/>
<path d="M310 71.1667C310 70.7 310.41 70.3333 310.931 70.3333C312.719 70.3333 313.575 69.4 314.655 68.2333C315.847 66.9667 317.188 65.5 319.832 65.5C322.513 65.5 323.854 66.9333 325.009 68.2333C326.089 69.4 326.945 70.3333 328.733 70.3333C330.521 70.3333 331.377 69.4 332.457 68.2333C333.649 66.9667 334.952 65.5 337.634 65.5C340.315 65.5 341.656 66.9333 342.811 68.2333C343.891 69.4 344.747 70.3333 346.535 70.3333C348.322 70.3333 349.179 69.4 350.259 68.2333C351.451 66.9667 352.754 65.5 355.436 65.5C358.117 65.5 359.458 66.9333 360.612 68.2333C361.692 69.4 362.549 70.3333 364.337 70.3333C365.007 70.3333 365.417 70.7 365.417 71.1667C365.417 71.6333 365.007 72 364.486 72C361.804 72 360.463 70.5667 359.309 69.2667C358.229 68.1 357.372 67.1667 355.585 67.1667C353.797 67.1667 352.94 68.1 351.86 69.2667C350.669 70.5333 349.365 72 346.684 72C344.002 72 342.662 70.5667 341.507 69.2667C340.427 68.1 339.57 67.1667 337.783 67.1667C335.995 67.1667 335.139 68.1 334.059 69.2667C332.867 70.5333 331.563 72 328.882 72C326.2 72 324.86 70.5667 323.705 69.2667C322.625 68.1 321.769 67.1667 319.981 67.1667C318.193 67.1667 317.337 68.1 316.257 69.2667C315.065 70.5333 313.724 72 311.08 72C310.41 72 310 71.6333 310 71.1667Z" fill="white"/>
</svg>
